<?xml version="1.0" encoding="UTF-8"?>
<svg version="1.1" xmlns="http://www.w3.org/2000/svg" width="512" height="512">
<path d="M0 0 C2.64 0 5.28 0 8 0 C8.29390625 0.58523437 8.5878125 1.17046875 8.890625 1.7734375 C13.33833283 10.28543008 18.64960949 18.11960656 24.02441406 26.06445312 C26.29929432 29.44472503 28.55344574 32.83833538 30.8046875 36.234375 C39.2553624 48.97588316 47.72719642 61.6815228 56.64648438 74.10205078 C58.05526794 76.07749873 59.44381632 78.06592779 60.828125 80.05859375 C67.66314105 89.87875476 74.81805755 99.42160312 82.10546875 108.91015625 C85.05143751 112.74762081 87.95368637 116.61406005 90.83227539 120.50219727 C95.34036473 126.58659362 99.98524615 132.48083805 104.93359375 138.21337891 C108.19662898 142.00350185 111.26989975 145.90682447 114.3125 149.875 C119.93283192 157.16171282 126.19854243 163.77683971 132.53320312 170.44042969 C134.23804176 172.25309767 135.88062756 174.11073215 137.5 176 C140.90032896 179.94681041 144.44870765 183.75198923 148 187.5625 C148.58201172 188.18833984 149.16402344 188.81417969 149.76367188 189.45898438 C154.90713635 194.96116065 160.07684582 200.48092036 165.8125 205.375 C168.80230473 207.94748973 171.72209893 210.57990115 174.625 213.25 C180.82689863 218.83550197 187.356014 223.95562585 194 229 C194.56203125 229.42958008 195.1240625 229.85916016 195.703125 230.30175781 C208.16586861 239.75801012 221.89486292 248.54165557 237 253 C238.19988045 247.71800407 238.19988045 247.71800407 236 243 C235.6875 240.4375 235.6875 240.4375 236 238 C239.74222842 235.50518105 242.66805905 235.37341568 247 236 C252.24116444 237.78238129 256.62063021 240.56457715 260 245 C260.3125 248.3125 260.3125 248.3125 260 251 C258.02 251.99 256.04 252.98 254 254 C254 254.66 254 255.32 254 256 C254.99 256.66 255.98 257.32 257 258 C257.5 260.9375 257.5 260.9375 257 264 C254.3477144 266.27338765 252.67098964 266.95526736 249.1875 267.1875 C248.465625 267.125625 247.74375 267.06375 247 267 C246.88785156 267.69480469 246.77570313 268.38960938 246.66015625 269.10546875 C245.91553885 272.37032964 244.75599912 275.23600205 243.4375 278.3125 C242.98246094 279.38113281 242.52742188 280.44976562 242.05859375 281.55078125 C241.70925781 282.35902344 241.35992187 283.16726563 241 284 C238.03 284 235.06 284 232 284 C232.99 277.73 233.98 271.46 235 265 C233.6696875 264.46632813 232.339375 263.93265625 230.96875 263.3828125 C219.21319432 258.56835125 208.4576247 253.21527801 198 246 C196.5459375 244.99839844 196.5459375 244.99839844 195.0625 243.9765625 C187.50411068 238.59340732 180.26497779 232.76955901 173 227 C171.3430469 230.0221443 170.4446531 232.85444708 169.68725586 236.21166992 C169.45038559 237.24921921 169.21351532 238.28676849 168.96946716 239.35575867 C168.72044144 240.46941299 168.47141571 241.58306732 168.21484375 242.73046875 C167.95369278 243.87663162 167.69254181 245.02279449 167.42347717 246.20368958 C166.58994057 249.86387237 165.76314207 253.52552895 164.9375 257.1875 C164.10776441 260.86005691 163.27652964 264.53224514 162.44081116 268.20344543 C161.92077097 270.48850041 161.4042822 272.77436693 160.8915863 275.06108093 C160.65786819 276.08917374 160.42415009 277.11726654 160.18334961 278.17651367 C159.97842392 279.08600266 159.77349823 279.99549164 159.56236267 280.93254089 C159 283 159 283 158 284 C156.36317353 284.09714351 154.72212586 284.12371573 153.0824194 284.12304783 C151.47532916 284.1260344 151.47532916 284.1260344 149.83577245 284.12908131 C148.64416417 284.12616847 147.45255588 284.12325563 146.22483826 284.12025452 C144.97033326 284.12110894 143.71582826 284.12196337 142.42330796 284.12284368 C138.92527275 284.125091 135.42726787 284.12106415 131.92923653 284.11606562 C128.16302941 284.11176468 124.39682412 284.11320729 120.63061523 284.1139679 C114.10011321 284.11449336 107.56962115 284.11134424 101.03912163 284.10573006 C91.59700646 284.09761806 82.15489613 284.09500015 72.71277786 284.09374207 C57.39518576 284.09155107 42.07759898 284.08488971 26.76000977 284.07543945 C11.8765465 284.06626656 -3.00691533 284.05918513 -17.89038086 284.05493164 C-18.80712578 284.05466892 -19.7238707 284.05440619 -20.66839577 284.05413551 C-25.267235 284.05283051 -29.86607424 284.05156679 -34.46491349 284.05032361 C-72.64327938 284.03994952 -110.82163934 284.02232992 -149 284 C-149.6388783 281.61792245 -150.27682343 279.23560138 -150.91424561 276.85313416 C-151.09353041 276.18504652 -151.27281521 275.51695888 -151.45753288 274.82862616 C-152.93944798 269.28514071 -154.29472284 263.72110115 -155.578125 258.12890625 C-155.79442566 257.19570053 -156.01072632 256.26249481 -156.23358154 255.30101013 C-156.90805132 252.38870641 -157.57910072 249.47562806 -158.25 246.5625 C-158.71331267 244.55919182 -159.17685282 242.55593623 -159.640625 240.55273438 C-160.76303458 235.702424 -161.88238276 230.85141677 -163 226 C-164.27213459 226.95046585 -165.54376516 227.90160632 -166.81518555 228.85302734 C-167.52337936 229.38262054 -168.23157318 229.91221375 -168.96122742 230.45785522 C-171.61636166 232.46622116 -174.20808067 234.55144042 -176.8125 236.625 C-192.09003868 248.49963708 -208.88854798 258.20820549 -227 265 C-226.01 271.27 -225.02 277.54 -224 284 C-226.97 284 -229.94 284 -233 284 C-234.0067004 281.73192796 -235.00551766 279.46092246 -236 277.1875 C-236.28617188 276.54490234 -236.57234375 275.90230469 -236.8671875 275.24023438 C-238.13711041 272.32243531 -239 270.21734286 -239 267 C-240.27875 266.87625 -241.5575 266.7525 -242.875 266.625 C-246.75 266.25 -246.75 266.25 -249 264 C-249.3125 261 -249.3125 261 -249 258 C-248.01 257.34 -247.02 256.68 -246 256 C-246 255.34 -246 254.68 -246 254 C-247.98 253.01 -249.96 252.02 -252 251 C-252.5 248.4375 -252.5 248.4375 -252 245 C-248.05980298 240.36954949 -243.2195808 236.37525916 -237.0234375 235.82421875 C-233.14879695 235.69036753 -231.28027892 235.81314738 -228 238 C-228.875 244.75 -228.875 244.75 -230 247 C-229.71887936 249.00800456 -229.38932033 251.01014051 -229 253 C-205.8526041 245.22967276 -187.20918169 230.82524982 -169 215 C-168.32195312 214.4225 -167.64390625 213.845 -166.9453125 213.25 C-162.33100489 209.28922093 -157.88818521 205.14237745 -153.4375 201 C-152.81182129 200.41822998 -152.18614258 199.83645996 -151.54150391 199.23706055 C-145.47139066 193.56178384 -139.62720212 187.78938283 -134.20703125 181.48828125 C-131.84465169 178.82485509 -129.41497654 176.23543983 -126.97216797 173.64599609 C-121.49130173 167.83480009 -116.18934408 161.97504333 -111.19921875 155.73046875 C-108.73071989 152.66567176 -106.18254166 149.67784953 -103.625 146.6875 C-98.41528416 140.56486243 -93.43149041 134.28440385 -88.50390625 127.93359375 C-86.90487797 125.87770025 -85.29679961 123.82911162 -83.6875 121.78125 C-70.84132119 105.40359382 -58.64883794 88.62695902 -46.81640625 71.50390625 C-44.00147139 67.43259199 -41.15178224 63.38883433 -38.2746582 59.36132812 C-31.83170477 50.33323242 -25.77939323 41.07885476 -19.77978516 31.75195312 C-17.85004866 28.76814108 -15.90162503 25.79714973 -13.94921875 22.828125 C-13.27093018 21.79510254 -12.5926416 20.76208008 -11.89379883 19.69775391 C-10.576894 17.69333207 -9.25782103 15.69033254 -7.9362793 13.68896484 C-5.01114849 9.22687429 -2.22419773 4.85427095 0 0 Z " fill="#71753B" transform="translate(252,114)"/>
<path d="M0 0 C0.99 0 1.98 0 3 0 C3.82035256 21.70384822 4.33446669 43.40799401 4.625 65.125 C4.63622564 65.9414373 4.64745128 66.7578746 4.65901709 67.59905243 C5.36799657 120.70659208 1.00710919 171.01776686 -9.9375 223 C-10.1690285 224.10283435 -10.1690285 224.10283435 -10.40523434 225.22794819 C-20.63729018 273.91187055 -20.63729018 273.91187055 -24 284 C-65.25 284 -106.5 284 -149 284 C-153.59708794 266.76092023 -153.59708794 266.76092023 -155.578125 258.12890625 C-155.79442566 257.19570053 -156.01072632 256.26249481 -156.23358154 255.30101013 C-156.90805132 252.38870641 -157.57910072 249.47562806 -158.25 246.5625 C-158.71331267 244.55919182 -159.17685282 242.55593623 -159.640625 240.55273438 C-160.76303458 235.702424 -161.88238276 230.85141677 -163 226 C-164.27213459 226.95046585 -165.54376516 227.90160632 -166.81518555 228.85302734 C-167.52337936 229.38262054 -168.23157318 229.91221375 -168.96122742 230.45785522 C-171.61636166 232.46622116 -174.20808067 234.55144042 -176.8125 236.625 C-192.09003868 248.49963708 -208.88854798 258.20820549 -227 265 C-226.01 271.27 -225.02 277.54 -224 284 C-226.97 284 -229.94 284 -233 284 C-234.0067004 281.73192796 -235.00551766 279.46092246 -236 277.1875 C-236.28617188 276.54490234 -236.57234375 275.90230469 -236.8671875 275.24023438 C-238.13711041 272.32243531 -239 270.21734286 -239 267 C-240.27875 266.87625 -241.5575 266.7525 -242.875 266.625 C-246.75 266.25 -246.75 266.25 -249 264 C-249.3125 261 -249.3125 261 -249 258 C-248.01 257.34 -247.02 256.68 -246 256 C-246 255.34 -246 254.68 -246 254 C-247.98 253.01 -249.96 252.02 -252 251 C-252.5 248.4375 -252.5 248.4375 -252 245 C-248.05980298 240.36954949 -243.2195808 236.37525916 -237.0234375 235.82421875 C-233.14879695 235.69036753 -231.28027892 235.81314738 -228 238 C-228.875 244.75 -228.875 244.75 -230 247 C-229.71887936 249.00800456 -229.38932033 251.01014051 -229 253 C-205.8526041 245.22967276 -187.20918169 230.82524982 -169 215 C-168.32195312 214.4225 -167.64390625 213.845 -166.9453125 213.25 C-162.33100489 209.28922093 -157.88818521 205.14237745 -153.4375 201 C-152.81182129 200.41822998 -152.18614258 199.83645996 -151.54150391 199.23706055 C-145.47139066 193.56178384 -139.62720212 187.78938283 -134.20703125 181.48828125 C-131.84465169 178.82485509 -129.41497654 176.23543983 -126.97216797 173.64599609 C-121.49130173 167.83480009 -116.18934408 161.97504333 -111.19921875 155.73046875 C-108.73071989 152.66567176 -106.18254166 149.67784953 -103.625 146.6875 C-98.41528416 140.56486243 -93.43149041 134.28440385 -88.50390625 127.93359375 C-86.90487797 125.87770025 -85.29679961 123.82911162 -83.6875 121.78125 C-70.84132119 105.40359382 -58.64883794 88.62695902 -46.81640625 71.50390625 C-44.00147139 67.43259199 -41.15178224 63.38883433 -38.2746582 59.36132812 C-31.83170477 50.33323242 -25.77939323 41.07885476 -19.77978516 31.75195312 C-17.85004866 28.76814108 -15.90162503 25.79714973 -13.94921875 22.828125 C-13.27093018 21.79510254 -12.5926416 20.76208008 -11.89379883 19.69775391 C-10.576894 17.69333207 -9.25782103 15.69033254 -7.9362793 13.68896484 C-5.01114849 9.22687429 -2.22419773 4.85427095 0 0 Z " fill="#9DA546" transform="translate(252,114)"/>
<path d="M0 0 C1.65 0 3.3 0 5 0 C5.29390625 0.58523437 5.5878125 1.17046875 5.890625 1.7734375 C10.33833283 10.28543008 15.64960949 18.11960656 21.02441406 26.06445312 C23.29929432 29.44472503 25.55344574 32.83833538 27.8046875 36.234375 C36.2553624 48.97588316 44.72719642 61.6815228 53.64648438 74.10205078 C55.05526794 76.07749873 56.44381632 78.06592779 57.828125 80.05859375 C64.66314105 89.87875476 71.81805755 99.42160312 79.10546875 108.91015625 C82.05143751 112.74762081 84.95368637 116.61406005 87.83227539 120.50219727 C92.34036473 126.58659362 96.98524615 132.48083805 101.93359375 138.21337891 C105.19662898 142.00350185 108.26989975 145.90682447 111.3125 149.875 C116.93283192 157.16171282 123.19854243 163.77683971 129.53320312 170.44042969 C131.23804176 172.25309767 132.88062756 174.11073215 134.5 176 C137.90032896 179.94681041 141.44870765 183.75198923 145 187.5625 C145.58201172 188.18833984 146.16402344 188.81417969 146.76367188 189.45898438 C151.90713635 194.96116065 157.07684582 200.48092036 162.8125 205.375 C165.80230473 207.94748973 168.72209893 210.57990115 171.625 213.25 C177.82689863 218.83550197 184.356014 223.95562585 191 229 C191.56203125 229.42958008 192.1240625 229.85916016 192.703125 230.30175781 C205.16586861 239.75801012 218.89486292 248.54165557 234 253 C235.19988045 247.71800407 235.19988045 247.71800407 233 243 C232.6875 240.4375 232.6875 240.4375 233 238 C236.74222842 235.50518105 239.66805905 235.37341568 244 236 C249.24116444 237.78238129 253.62063021 240.56457715 257 245 C257.3125 248.3125 257.3125 248.3125 257 251 C255.02 251.99 253.04 252.98 251 254 C251 254.66 251 255.32 251 256 C251.99 256.66 252.98 257.32 254 258 C254.5 260.9375 254.5 260.9375 254 264 C251.3477144 266.27338765 249.67098964 266.95526736 246.1875 267.1875 C245.465625 267.125625 244.74375 267.06375 244 267 C243.83177734 268.04220703 243.83177734 268.04220703 243.66015625 269.10546875 C242.91553885 272.37032964 241.75599912 275.23600205 240.4375 278.3125 C239.98246094 279.38113281 239.52742187 280.44976562 239.05859375 281.55078125 C238.70925781 282.35902344 238.35992187 283.16726563 238 284 C235.03 284 232.06 284 229 284 C229.99 277.73 230.98 271.46 232 265 C230.6696875 264.46632813 229.339375 263.93265625 227.96875 263.3828125 C216.21319432 258.56835125 205.4576247 253.21527801 195 246 C193.5459375 244.99839844 193.5459375 244.99839844 192.0625 243.9765625 C189.3337924 242.03315157 186.66027939 240.03607975 184 238 C183.42443359 237.55978516 182.84886719 237.11957031 182.25585938 236.66601562 C180.37372639 235.22140465 178.49802834 233.76889303 176.625 232.3125 C176.04153809 231.86076416 175.45807617 231.40902832 174.85693359 230.94360352 C171.32124663 228.1651267 168.15379742 225.21591767 165 222 C163.10280081 220.19949883 161.18942871 218.41696684 159.27685547 216.6328125 C136.46440445 195.34740325 136.46440445 195.34740325 127.4609375 184.67578125 C125.92722273 182.91652019 124.30327942 181.30882424 122.625 179.6875 C118.96234602 176.08156854 115.79694005 172.14615336 112.578125 168.14453125 C109.68529612 164.57860715 106.65180505 161.13960996 103.625 157.6875 C98.46156251 151.77616138 93.54221987 145.72100163 88.73828125 139.515625 C86.88853174 137.12739138 85.01103268 134.76581407 83.10546875 132.421875 C76.55994106 124.36750018 70.38295127 116.11352426 64.3515625 107.66796875 C61.53370334 103.72577882 58.65994746 99.82840108 55.76757812 95.94067383 C41.11454447 76.22586709 27.70076509 55.64512366 14.11859131 35.18629456 C11.92411879 31.88195133 9.72248706 28.583497 7.49072266 25.30419922 C6.75772949 24.22283691 6.02473633 23.14147461 5.26953125 22.02734375 C4.31397339 20.62923462 4.31397339 20.62923462 3.33911133 19.20288086 C2 17 2 17 2 15 C1.34 15 0.68 15 0 15 C0 10.05 0 5.1 0 0 Z " fill="#987F46" transform="translate(255,114)"/>
<path d="M0 0 C0.99 0 1.98 0 3 0 C3.27855117 2.52862559 3.4709684 5.02537951 3.625 7.5625 C3.70878906 8.24763672 3.79257813 8.93277344 3.87890625 9.63867188 C4.24537893 17.81101259 -1.07462084 23.75931827 -5.61834717 30.06124878 C-7.75602954 33.06086938 -9.76865165 36.13950859 -11.7890625 39.21875 C-12.58440387 40.41882565 -13.38055342 41.61836606 -14.17749023 42.81738281 C-14.77628494 43.71873962 -14.77628494 43.71873962 -15.38717651 44.63830566 C-28.00633509 63.61759981 -40.93252509 82.36722666 -54.37597656 100.77441406 C-56.07582906 103.10391728 -57.76821693 105.43874817 -59.4609375 107.7734375 C-66.03646609 116.80717559 -72.81160187 125.61248872 -79.91796875 134.234375 C-82.84720347 137.79214996 -85.67831839 141.41930316 -88.5 145.0625 C-93.3853103 151.34068141 -98.55353252 157.34396987 -103.796875 163.32421875 C-106.36338693 166.25439708 -108.87475638 169.22534007 -111.36816406 172.21777344 C-115.59974583 177.29268104 -119.95001969 182.13929046 -124.734375 186.70703125 C-126.6534306 188.64924786 -128.42724459 190.62805922 -130.20703125 192.6953125 C-134.25111446 197.35536399 -138.56501703 201.71215618 -142.9375 206.0625 C-143.69740234 206.82626953 -144.45730469 207.59003906 -145.24023438 208.37695312 C-158.88658843 222 -158.88658843 222 -162 222 C-162.22171875 222.56460938 -162.4434375 223.12921875 -162.671875 223.7109375 C-173.81480335 242.91610225 -207.50521657 257.60542697 -227 265 C-226.01 271.27 -225.02 277.54 -224 284 C-226.97 284 -229.94 284 -233 284 C-234.0067004 281.73192796 -235.00551766 279.46092246 -236 277.1875 C-236.28617188 276.54490234 -236.57234375 275.90230469 -236.8671875 275.24023438 C-238.13711041 272.32243531 -239 270.21734286 -239 267 C-240.27875 266.87625 -241.5575 266.7525 -242.875 266.625 C-246.75 266.25 -246.75 266.25 -249 264 C-249.3125 261 -249.3125 261 -249 258 C-248.01 257.34 -247.02 256.68 -246 256 C-246 255.34 -246 254.68 -246 254 C-247.98 253.01 -249.96 252.02 -252 251 C-252.5 248.4375 -252.5 248.4375 -252 245 C-248.05980298 240.36954949 -243.2195808 236.37525916 -237.0234375 235.82421875 C-233.14879695 235.69036753 -231.28027892 235.81314738 -228 238 C-228.875 244.75 -228.875 244.75 -230 247 C-229.71887936 249.00800456 -229.38932033 251.01014051 -229 253 C-205.8526041 245.22967276 -187.20918169 230.82524982 -169 215 C-168.32195312 214.4225 -167.64390625 213.845 -166.9453125 213.25 C-162.33100489 209.28922093 -157.88818521 205.14237745 -153.4375 201 C-152.81182129 200.41822998 -152.18614258 199.83645996 -151.54150391 199.23706055 C-145.47139066 193.56178384 -139.62720212 187.78938283 -134.20703125 181.48828125 C-131.84465169 178.82485509 -129.41497654 176.23543983 -126.97216797 173.64599609 C-121.49130173 167.83480009 -116.18934408 161.97504333 -111.19921875 155.73046875 C-108.73071989 152.66567176 -106.18254166 149.67784953 -103.625 146.6875 C-98.41528416 140.56486243 -93.43149041 134.28440385 -88.50390625 127.93359375 C-86.90487797 125.87770025 -85.29679961 123.82911162 -83.6875 121.78125 C-70.84132119 105.40359382 -58.64883794 88.62695902 -46.81640625 71.50390625 C-44.00147139 67.43259199 -41.15178224 63.38883433 -38.2746582 59.36132812 C-31.83170477 50.33323242 -25.77939323 41.07885476 -19.77978516 31.75195312 C-17.85004866 28.76814108 -15.90162503 25.79714973 -13.94921875 22.828125 C-13.27093018 21.79510254 -12.5926416 20.76208008 -11.89379883 19.69775391 C-10.576894 17.69333207 -9.25782103 15.69033254 -7.9362793 13.68896484 C-5.01114849 9.22687429 -2.22419773 4.85427095 0 0 Z " fill="#DFB659" transform="translate(252,114)"/>
<path d="M0 0 C0.33 0 0.66 0 1 0 C6.15578302 25.46861335 11.24865195 50.9430604 15.94140625 76.50146484 C17.8181108 86.70999151 19.74343957 96.90770366 21.71875 107.09765625 C21.94989502 108.29132813 22.18104004 109.485 22.41918945 110.71484375 C23.55830003 116.59327588 24.70205249 122.4707609 25.8515625 128.34716797 C26.2657505 130.48011886 26.67981903 132.61309296 27.09375 134.74609375 C27.28706909 135.72626968 27.48038818 136.70644562 27.67956543 137.71632385 C27.85427368 138.6200322 28.02898193 139.52374054 28.20898438 140.45483398 C28.36250366 141.24002914 28.51602295 142.0252243 28.67419434 142.83421326 C29 145 29 145 29 149 C10.19 149 -8.62 149 -28 149 C-26.67574304 140.39232977 -25.27240165 131.86919509 -23.6015625 123.33178711 C-23.25481476 121.54368874 -23.25481476 121.54368874 -22.90106201 119.71946716 C-22.27472981 116.49191513 -21.64621408 113.26479778 -21.01677704 110.03785014 C-20.3537374 106.63528871 -19.69385377 103.23211538 -19.03369141 99.82899475 C-17.64263911 92.66060135 -16.24856149 85.49279894 -14.85375977 78.32513428 C-12.75451395 67.53739332 -10.65747709 56.74922363 -8.56362724 45.96043402 C-7.90849509 42.58531646 -7.25262601 39.21034549 -6.59503174 35.83570671 C-5.86145087 32.07034467 -5.12977552 28.30461657 -4.3984375 24.53881836 C-4.18435242 23.44289368 -3.97026733 22.34696899 -3.74969482 21.21783447 C-2.38221502 14.16311139 -1.14707 7.09386243 0 0 Z " fill="#302F2A" transform="translate(256,249)"/>
<path d="M0 0 C0.33 0 0.66 0 1 0 C0.43453578 8.14652044 -0.81178686 16.03342886 -2.37670898 24.04296875 C-2.61748169 25.29796677 -2.85825439 26.55296478 -3.10632324 27.84599304 C-3.76035973 31.25346011 -4.42120504 34.65957148 -5.08375812 38.06539154 C-5.63762457 40.91589632 -6.18808609 43.76705436 -6.7385717 46.61821365 C-8.0363741 53.33969629 -9.33972979 60.06008516 -10.64672852 66.77978516 C-11.9941936 73.70800873 -13.33264226 80.6379311 -14.66667122 87.56875324 C-15.81503579 93.53342097 -16.96869008 99.49704841 -18.12666947 105.45985699 C-18.81715471 109.01559081 -19.50567943 112.57167517 -20.18920708 116.12875366 C-20.94969983 120.08476221 -21.72123346 124.03853797 -22.49389648 127.9921875 C-22.71890335 129.17036545 -22.94391022 130.3485434 -23.17573547 131.56242371 C-23.38739349 132.63607681 -23.59905151 133.70972992 -23.81712341 134.81591797 C-23.99833961 135.75015594 -24.1795558 136.68439392 -24.36626339 137.64694214 C-25 140 -25 140 -27 143 C-33.94461836 140.05265416 -40.88601421 137.09781966 -47.82519531 134.13769531 C-50.18741061 133.13107317 -52.55036491 132.12618343 -54.9140625 131.12304688 C-58.30663567 129.68291095 -61.69652375 128.23661577 -65.0859375 126.7890625 C-66.14743011 126.34003571 -67.20892273 125.89100891 -68.30258179 125.42837524 C-69.28344757 125.00809052 -70.26431335 124.58780579 -71.27490234 124.15478516 C-72.14094086 123.78616364 -73.00697937 123.41754211 -73.89926147 123.03775024 C-76 122 -76 122 -78 120 C-77.175 119.3915625 -76.35 118.783125 -75.5 118.15625 C-61.13056084 107.33913847 -48.25846949 94.82245878 -38 80 C-37.57444824 79.39172363 -37.14889648 78.78344727 -36.71044922 78.15673828 C-20.09133958 54.15808962 -8.78374539 27.70290153 0 0 Z " fill="#70743A" transform="translate(254,255)"/>
<path d="M0 0 C1.81548275 2.72322413 2.61701793 4.59299425 3.55859375 7.6640625 C14.631145 42.812069 30.82195469 75.77113365 56 103 C56.83015625 103.90105469 57.6603125 104.80210937 58.515625 105.73046875 C63.55662082 110.97473053 68.95374971 115.47462853 74.79858398 119.77832031 C78.90629316 122.81258633 78.90629316 122.81258633 80 125 C63.10281472 132.59508026 46.14274604 139.97215804 29 147 C26.75553324 143.24138756 26.10234515 139.20163952 25.30761719 134.9597168 C25.15115219 134.15061356 24.99468719 133.34151031 24.83348083 132.50788879 C24.31566777 129.8227101 23.80627972 127.13600419 23.296875 124.44921875 C22.93348602 122.556118 22.56956456 120.6631194 22.20513916 118.7702179 C21.24215732 113.76074394 20.28624651 108.74994593 19.33184814 103.73883057 C18.3828253 98.76196085 17.42757634 93.78628783 16.47265625 88.81054688 C14.99486241 81.10687793 13.52006799 73.40264138 12.04736328 65.69799805 C10.36658596 56.90710282 8.67893473 48.11756276 6.9796524 39.33022499 C6.61829471 37.46152767 6.2574682 35.59272767 5.89666748 33.72392273 C4.35632788 25.76950274 2.77909183 17.82300009 1.1182251 9.89277649 C0.42153359 6.4918761 0 3.4904859 0 0 Z " fill="#555733" transform="translate(257,251)"/>
<path d="M0 0 C5.24116444 1.78238129 9.62063021 4.56457715 13 9 C13.3125 12.3125 13.3125 12.3125 13 15 C12.05125 15.433125 11.1025 15.86625 10.125 16.3125 C6.79958063 17.79302201 6.79958063 17.79302201 5 21 C-0.03522785 21.49364979 -4.25608939 20.70780782 -9 19 C-10 17 -10 17 -9.4375 13.5625 C-8.59492492 9.90129691 -8.59492492 9.90129691 -11 7 C-11.3125 4.4375 -11.3125 4.4375 -11 2 C-7.25777158 -0.49481895 -4.33194095 -0.62658432 0 0 Z " fill="#302F2A" transform="translate(499,350)"/>
<path d="M0 0 C0.99 0.66 1.98 1.32 3 2 C2.125 8.75 2.125 8.75 1 11 C1.28241883 13.3400417 1.61250787 15.67504723 2 18 C-2.751203 21.16746866 -7.33702264 21.42739452 -13 21 C-13.66 20.01 -14.32 19.02 -15 18 C-16.96752828 16.93753473 -18.96587579 15.92862192 -21 15 C-21.5 12.4375 -21.5 12.4375 -21 9 C-15.01103292 1.9618708 -9.06231234 -0.58466531 0 0 Z " fill="#31302A" transform="translate(21,350)"/>
<path d="M0 0 C0.99 6.27 1.98 12.54 3 19 C0.03 19 -2.94 19 -6 19 C-7.16878263 16.18836219 -8.33511948 13.37575392 -9.5 10.5625 C-10.00080078 9.35883789 -10.00080078 9.35883789 -10.51171875 8.13085938 C-10.98544922 6.98520508 -10.98544922 6.98520508 -11.46875 5.81640625 C-11.76201172 5.10943604 -12.05527344 4.40246582 -12.35742188 3.67407227 C-13 2 -13 2 -13 1 C-11.58622218 0.63447197 -10.16879424 0.28304505 -8.75 -0.0625 C-7.96109375 -0.25972656 -7.1721875 -0.45695312 -6.359375 -0.66015625 C-4 -1 -4 -1 0 0 Z " fill="#31302A" transform="translate(25,379)"/>
<path d="M0 0 C2.02910711 0.25327449 4.04962145 0.57730068 6.0625 0.9375 C7.16722656 1.13214844 8.27195312 1.32679688 9.41015625 1.52734375 C10.69212891 1.76130859 10.69212891 1.76130859 12 2 C11.20875876 4.06266324 10.41698909 6.12512379 9.625 8.1875 C9.18414062 9.33605469 8.74328125 10.48460937 8.2890625 11.66796875 C7.21147857 14.45335994 6.1163557 17.22997721 5 20 C2.03 20 -0.94 20 -4 20 C-3.5257654 16.85334902 -3.04586569 13.70774933 -2.5625 10.5625 C-2.42779297 9.66466797 -2.29308594 8.76683594 -2.15429688 7.84179688 C-2.02216797 6.98779297 -1.89003906 6.13378906 -1.75390625 5.25390625 C-1.63345947 4.46314697 -1.5130127 3.6723877 -1.38891602 2.85766602 C-1 1 -1 1 0 0 Z " fill="#302F2A" transform="translate(488,378)"/>
</svg>
